<svg width="225" height="28" viewBox="0 0 225 28" fill="none" xmlns="http://www.w3.org/2000/svg">
<path d="M30.8 0H0L4.4 8.7999H30.8C35.6601 8.7999 39.6 12.7398 39.6 17.5999C39.6 22.46 35.6601 26.3998 30.8 26.3998C38.0902 26.3998 44 20.49 44 13.1999C44 5.9098 38.0902 0 30.8 0Z" fill="#EE2B69"/>
<path opacity="0.3" d="M20.7837 23.9678C19.3209 21.0423 21.4483 17.6001 24.7191 17.6001H30.7998C33.2299 17.6001 35.1998 19.57 35.1998 22.0001C35.1998 24.4301 33.2299 26.4 30.7998 26.4H24.7191C23.0526 26.4 21.529 25.4584 20.7837 23.9678Z" fill="#F580A5"/>
<path opacity="0.6" d="M30.8008 8.80029H8.80078L13.2008 17.6002H30.8008C33.2308 17.6002 35.2008 19.5702 35.2008 22.0002C35.2008 24.4303 33.2308 26.4002 30.8008 26.4002C35.6609 26.4002 39.6008 22.4603 39.6008 17.6002C39.6008 12.7402 35.6609 8.80029 30.8008 8.80029Z" fill="#F15587"/>
<path d="M61.024 6.16C62.32 6.16 63.424 6.368 64.336 6.784C65.248 7.2 65.944 7.8 66.424 8.584C66.904 9.368 67.144 10.32 67.144 11.44C67.144 12.56 66.904 13.512 66.424 14.296C65.944 15.08 65.248 15.68 64.336 16.096C63.424 16.512 62.32 16.72 61.024 16.72H57.88V22H53.752V6.16H61.024ZM60.376 13.624C61.24 13.624 61.888 13.448 62.32 13.096C62.768 12.728 62.992 12.176 62.992 11.44C62.992 10.704 62.768 10.16 62.32 9.808C61.888 9.44 61.24 9.256 60.376 9.256H57.88V13.624H60.376ZM71.5353 8.608C70.7033 8.608 70.0953 8.456 69.7113 8.152C69.3433 7.832 69.1593 7.336 69.1593 6.664C69.1593 5.976 69.3433 5.48 69.7113 5.176C70.0953 4.856 70.7033 4.696 71.5353 4.696C72.3513 4.696 72.9513 4.856 73.3353 5.176C73.7193 5.48 73.9113 5.976 73.9113 6.664C73.9113 7.336 73.7193 7.832 73.3353 8.152C72.9513 8.456 72.3513 8.608 71.5353 8.608ZM73.5753 10V22H69.4953V10H73.5753ZM81.4956 6.184V17.728C81.4956 18.304 81.6316 18.72 81.9036 18.976C82.1916 19.216 82.5836 19.336 83.0796 19.336C83.4636 19.336 83.7916 19.296 84.0636 19.216C84.3516 19.12 84.6076 18.984 84.8316 18.808L85.2636 21.328C84.8636 21.616 84.3596 21.84 83.7516 22C83.1436 22.16 82.5196 22.24 81.8796 22.24C80.9676 22.24 80.1756 22.112 79.5036 21.856C78.8476 21.6 78.3356 21.192 77.9676 20.632C77.6156 20.072 77.4316 19.328 77.4156 18.4V7.312L81.4956 6.184ZM85.0716 10V12.904H75.3516V10H85.0716ZM92.6442 9.76C93.8602 9.76 94.8682 9.936 95.6682 10.288C96.4842 10.624 97.1162 11.08 97.5642 11.656C98.0282 12.216 98.3162 12.824 98.4282 13.48L94.6602 14.728C94.5482 14.04 94.3402 13.528 94.0362 13.192C93.7482 12.84 93.3242 12.664 92.7642 12.664C92.2522 12.664 91.8202 12.784 91.4682 13.024C91.1322 13.248 90.8762 13.616 90.7002 14.128C90.5242 14.624 90.4362 15.264 90.4362 16.048C90.4362 16.832 90.5322 17.472 90.7242 17.968C90.9162 18.448 91.1882 18.8 91.5402 19.024C91.8922 19.232 92.3082 19.336 92.7882 19.336C93.1882 19.336 93.5162 19.264 93.7722 19.12C94.0442 18.96 94.2682 18.736 94.4442 18.448C94.6202 18.16 94.7322 17.808 94.7802 17.392L98.4522 18.568C98.3402 19.272 98.0362 19.904 97.5402 20.464C97.0602 21.008 96.4202 21.44 95.6202 21.76C94.8202 22.08 93.8842 22.24 92.8122 22.24C91.5002 22.24 90.3562 22 89.3802 21.52C88.4042 21.024 87.6522 20.312 87.1242 19.384C86.5962 18.44 86.3322 17.312 86.3322 16C86.3322 14.688 86.5962 13.568 87.1242 12.64C87.6522 11.696 88.3882 10.984 89.3322 10.504C90.2922 10.008 91.3962 9.76 92.6442 9.76ZM100.573 22V4.912H104.653V12.184C105.005 11.384 105.509 10.784 106.165 10.384C106.821 9.968 107.581 9.76 108.445 9.76C109.277 9.76 109.997 9.92 110.605 10.24C111.229 10.56 111.717 11.032 112.069 11.656C112.421 12.28 112.597 13.064 112.597 14.008V22H108.517V15.136C108.517 14.272 108.357 13.68 108.037 13.36C107.733 13.024 107.325 12.856 106.813 12.856C106.429 12.856 106.069 12.952 105.733 13.144C105.397 13.336 105.133 13.64 104.941 14.056C104.749 14.472 104.653 15.016 104.653 15.688V22H100.573Z" fill="#EE2B69"/>
<path d="M122.417 6.16C124.897 6.16 126.793 6.848 128.105 8.224C129.433 9.6 130.097 11.552 130.097 14.08C130.097 16.608 129.433 18.56 128.105 19.936C126.793 21.312 124.897 22 122.417 22H115.697V6.16H122.417ZM122.009 18.88C123.353 18.88 124.329 18.48 124.937 17.68C125.561 16.864 125.873 15.664 125.873 14.08C125.873 12.496 125.561 11.304 124.937 10.504C124.329 9.688 123.353 9.28 122.009 9.28H119.825V18.88H122.009ZM134.629 8.608C133.797 8.608 133.189 8.456 132.805 8.152C132.437 7.832 132.253 7.336 132.253 6.664C132.253 5.976 132.437 5.48 132.805 5.176C133.189 4.856 133.797 4.696 134.629 4.696C135.445 4.696 136.045 4.856 136.429 5.176C136.813 5.48 137.005 5.976 137.005 6.664C137.005 7.336 136.813 7.832 136.429 8.152C136.045 8.456 135.445 8.608 134.629 8.608ZM136.669 10V22H132.589V10H136.669ZM139.573 22V10H143.173L143.341 12.592C143.645 11.696 144.093 11 144.685 10.504C145.293 10.008 146.061 9.76 146.989 9.76C147.293 9.76 147.549 9.784 147.757 9.832C147.981 9.88 148.157 9.944 148.285 10.024L147.877 13.384C147.717 13.32 147.509 13.272 147.253 13.24C147.013 13.192 146.717 13.168 146.365 13.168C145.885 13.168 145.437 13.272 145.021 13.48C144.605 13.688 144.269 14 144.013 14.416C143.773 14.816 143.653 15.328 143.653 15.952V22H139.573ZM155.601 22.24C154.273 22.24 153.121 21.992 152.145 21.496C151.185 21 150.441 20.288 149.913 19.36C149.385 18.432 149.121 17.312 149.121 16C149.121 14.688 149.385 13.568 149.913 12.64C150.441 11.712 151.177 11 152.121 10.504C153.081 10.008 154.177 9.76 155.409 9.76C156.673 9.76 157.745 10.008 158.625 10.504C159.521 10.984 160.201 11.656 160.665 12.52C161.129 13.368 161.361 14.344 161.361 15.448C161.361 15.736 161.353 16.024 161.337 16.312C161.321 16.6 161.297 16.84 161.265 17.032H151.761V14.848H159.465L157.521 15.592C157.521 14.632 157.345 13.896 156.993 13.384C156.657 12.872 156.129 12.616 155.409 12.616C154.897 12.616 154.457 12.736 154.089 12.976C153.737 13.216 153.465 13.592 153.273 14.104C153.097 14.616 153.009 15.272 153.009 16.072C153.009 16.856 153.113 17.496 153.321 17.992C153.529 18.472 153.825 18.824 154.209 19.048C154.593 19.256 155.057 19.36 155.601 19.36C156.209 19.36 156.689 19.24 157.041 19C157.409 18.76 157.681 18.424 157.857 17.992L161.121 19.072C160.897 19.76 160.505 20.344 159.945 20.824C159.401 21.288 158.745 21.64 157.977 21.88C157.225 22.12 156.433 22.24 155.601 22.24ZM169.332 9.76C170.548 9.76 171.556 9.936 172.356 10.288C173.172 10.624 173.804 11.08 174.252 11.656C174.716 12.216 175.004 12.824 175.116 13.48L171.348 14.728C171.236 14.04 171.028 13.528 170.724 13.192C170.436 12.84 170.012 12.664 169.452 12.664C168.94 12.664 168.508 12.784 168.156 13.024C167.82 13.248 167.564 13.616 167.388 14.128C167.212 14.624 167.124 15.264 167.124 16.048C167.124 16.832 167.22 17.472 167.412 17.968C167.604 18.448 167.876 18.8 168.228 19.024C168.58 19.232 168.996 19.336 169.476 19.336C169.876 19.336 170.204 19.264 170.46 19.12C170.732 18.96 170.956 18.736 171.132 18.448C171.308 18.16 171.42 17.808 171.468 17.392L175.14 18.568C175.028 19.272 174.724 19.904 174.228 20.464C173.748 21.008 173.108 21.44 172.308 21.76C171.508 22.08 170.572 22.24 169.5 22.24C168.188 22.24 167.044 22 166.068 21.52C165.092 21.024 164.34 20.312 163.812 19.384C163.284 18.44 163.02 17.312 163.02 16C163.02 14.688 163.284 13.568 163.812 12.64C164.34 11.696 165.076 10.984 166.02 10.504C166.98 10.008 168.084 9.76 169.332 9.76ZM182.277 6.184V17.728C182.277 18.304 182.413 18.72 182.685 18.976C182.973 19.216 183.365 19.336 183.861 19.336C184.245 19.336 184.573 19.296 184.845 19.216C185.133 19.12 185.389 18.984 185.613 18.808L186.045 21.328C185.645 21.616 185.141 21.84 184.533 22C183.925 22.16 183.301 22.24 182.661 22.24C181.749 22.24 180.957 22.112 180.285 21.856C179.629 21.6 179.117 21.192 178.749 20.632C178.397 20.072 178.213 19.328 178.197 18.4V7.312L182.277 6.184ZM185.853 10V12.904H176.133V10H185.853ZM193.449 9.76C194.713 9.76 195.817 10.008 196.761 10.504C197.721 10.984 198.465 11.696 198.993 12.64C199.537 13.568 199.809 14.688 199.809 16C199.809 17.312 199.537 18.44 198.993 19.384C198.465 20.312 197.721 21.024 196.761 21.52C195.817 22 194.713 22.24 193.449 22.24C192.217 22.24 191.121 22 190.161 21.52C189.201 21.024 188.449 20.312 187.905 19.384C187.377 18.44 187.113 17.312 187.113 16C187.113 14.688 187.377 13.568 187.905 12.64C188.449 11.696 189.201 10.984 190.161 10.504C191.121 10.008 192.217 9.76 193.449 9.76ZM193.449 12.664C192.985 12.664 192.585 12.776 192.249 13C191.913 13.224 191.657 13.584 191.481 14.08C191.305 14.576 191.217 15.216 191.217 16C191.217 16.784 191.305 17.424 191.481 17.92C191.657 18.4 191.913 18.76 192.249 19C192.585 19.224 192.985 19.336 193.449 19.336C193.929 19.336 194.337 19.224 194.673 19C195.009 18.76 195.265 18.4 195.441 17.92C195.617 17.424 195.705 16.784 195.705 16C195.705 15.216 195.617 14.576 195.441 14.08C195.265 13.584 195.009 13.224 194.673 13C194.337 12.776 193.929 12.664 193.449 12.664ZM202.105 22V10H205.705L205.873 12.592C206.177 11.696 206.625 11 207.217 10.504C207.825 10.008 208.593 9.76 209.521 9.76C209.825 9.76 210.081 9.784 210.289 9.832C210.513 9.88 210.689 9.944 210.817 10.024L210.409 13.384C210.249 13.32 210.041 13.272 209.785 13.24C209.545 13.192 209.249 13.168 208.897 13.168C208.417 13.168 207.969 13.272 207.553 13.48C207.137 13.688 206.801 14 206.545 14.416C206.305 14.816 206.185 15.328 206.185 15.952V22H202.105ZM224.489 10L220.121 22C219.673 23.264 219.185 24.272 218.657 25.024C218.129 25.776 217.505 26.32 216.785 26.656C216.065 26.992 215.201 27.16 214.193 27.16C213.521 27.16 212.905 27.088 212.345 26.944C211.785 26.8 211.297 26.6 210.881 26.344L211.697 23.584C211.985 23.792 212.289 23.936 212.609 24.016C212.929 24.112 213.337 24.16 213.833 24.16C214.297 24.16 214.673 24.08 214.961 23.92C215.265 23.76 215.505 23.456 215.681 23.008L215.993 22.264L214.601 19L211.001 10H215.489L217.337 16.84L217.913 19.384L218.585 16.744L220.433 10H224.489Z" fill="black"/>
</svg>
